<svg xmlns="http://www.w3.org/2000/svg" aria-hidden="true" style="position: absolute; width: 0; height: 0; overflow: hidden;">
    <defs>
        <symbol id="icon-facebook" viewBox="0 0 32 32">
            <path stroke-linecap="round" stroke-linejoin="round" stroke-width="2.667" d="M24 2.667h-4a6.67 6.67 0 0 0-6.667 6.667v4h-4v5.333h4v10.667h5.333V18.667h4l1.333-5.333h-5.333v-4A1.334 1.334 0 0 1 20 8h4V2.667z" />
        </symbol>

    <symbol id="icon-star" viewBox="0 0 35 32">
<path fill="none" stroke="#f8f7f7" style="stroke: var(--color1, #f8f7f7)" stroke-linejoin="miter" stroke-linecap="butt" stroke-miterlimit="4" stroke-width="2.2069" d="M13.118 10.459l4.537-8.183 4.537 8.183c0.19 0.342 0.521 0.583 0.905 0.658l9.184 1.786-6.38 6.844c-0.267 0.286-0.393 0.676-0.346 1.064l1.139 9.287-8.48-3.953c-0.355-0.165-0.764-0.165-1.119 0l-8.48 3.953 1.139-9.287c0.048-0.388-0.079-0.778-0.346-1.064l-6.381-6.844 9.184-1.786c0.384-0.075 0.716-0.315 0.905-0.658z"></path>
</symbol>

        <symbol id="icon-burger-button" viewBox="0 0 43 32">
<path fill="#266294" style="fill: var(--color1, #266294)" d="M0 0h42.667v4h-42.667v-4z"></path>
<path fill="#266294" style="fill: var(--color1, #266294)" d="M10.667 14h21.333v4h-21.333v-4z"></path>
<path fill="#266294" style="fill: var(--color1, #266294)" d="M0 28h42.667v4h-42.667v-4z"></path>
</symbol>



        <symbol id="icon-globe" viewBox="0 0 32 32">
            <path
                d="M14.322.324C8.916.911 4.19 4.135 1.743 8.904.859 10.627.367 12.2.1 14.158c-.131.962-.132 3.013-.002 3.95.453 3.257 1.664 5.951 3.794 8.438.602.703 1.88 1.966 2.041 2.017.066.021.39.236.721.478 2.049 1.499 4.556 2.484 7.29 2.861.849.117 3.057.133 3.899.028 4.504-.561 8.375-2.799 11.063-6.394 1.01-1.352 1.939-3.188 2.414-4.773 1.519-5.073.468-10.469-2.841-14.585-.518-.645-1.84-1.947-2.505-2.468-1.818-1.425-3.808-2.409-5.987-2.961C18.611.4 17.867.31 16.219.291c-.789-.009-1.642.006-1.896.033zm3.872.371c1.298.191 2.687.569 3.804 1.034.215.09.378.184.362.21-.031.05.13.128.366.178.08.017.178.064.219.104.102.101.342.219.665.327.29.097 1.804 1.063 1.713 1.093-.03.01-.103-.008-.163-.039s-.165-.057-.235-.057c-.07 0-.261-.033-.423-.074-.455-.114-1.117-.146-1.192-.057-.05.059-.007.081.228.114l.289.041-.314.035c-.199.023-.338.068-.381.126-.075.102-.325.166-.865.221-.225.023-.414.075-.487.134l-.12.096.124.167c.068.092.11.191.092.22s.007.053.055.053.072.025.053.055c-.095.153.666.277.978.159.133-.05.164-.033.369.197.123.139.267.32.318.404.097.156.324.21.396.094.02-.032.094-.044.166-.026.155.039.4-.015.4-.087 0-.028-.04-.091-.088-.139-.082-.081-.074-.092.095-.151.215-.074.212-.16-.01-.335-.206-.162-.207-.278-.003-.278.31 0 .494-.063.494-.168 0-.129.078-.126.379.017l.244.115-.316.051c-.288.047-.313.062-.28.166.02.063.036.158.035.212-.001.066.09.14.28.228.155.071.318.133.362.137s.01.022-.077.041c-.227.049-.23.148-.007.221.106.035.192.085.192.113 0 .07-.038.062-.191-.037-.17-.111-.284-.066-.306.12-.021.179-.258.282-.443.191-.064-.032-.308-.068-.542-.08-.263-.014-.442-.049-.468-.091-.029-.046-.11-.057-.255-.034s-.246.01-.317-.043c-.101-.075-.101-.076.008-.049.153.038.271-.102.162-.192-.044-.036-.11-.047-.147-.024s-.13.047-.206.054c-.136.012-.137.011-.016-.045.139-.065.162-.148.041-.148-.046 0-.081-.048-.081-.11 0-.098-.023-.106-.203-.074a1.49 1.49 0 0 0-.244.059c-.073.041-.043.185.067.324.059.075.094.157.078.183s-.175.047-.353.047c-.378 0-.697.115-.737.266-.029.112-.08.136-.409.194-.112.02-.203.067-.203.106 0 .095-.396.157-.534.083-.151-.08-.17-.074-.17.057 0 .106-.02.112-.249.081-.288-.039-.523.005-.494.093.011.033.151.104.311.158.322.107.708.457.742.673.031.197-.165.333-.438.303l-.774-.084c-.437-.048-.59-.046-.745.01-.194.07-.25.17-.135.24.073.045.02.52-.076.676-.054.088-.049.115.03.159.065.037.095.12.095.266v.212h.288c.245 0 .31.023.434.151.232.24.136.414-.45.812-.49.333-.597.478-.597.807 0 .183-.279.455-.636.619-.366.168-.522.347-.802.921-.131.269-.276.52-.321.557-.116.096-.104.416.035.883.106.357.11.42.045.65a1.32 1.32 0 0 1-.206.413l-.134.158.143.28c.078.154.143.339.143.412 0 .095.132.259.475.59.261.252.54.572.62.711.11.191.215.288.432.397.158.079.392.25.52.378.266.268.434.295.926.15.338-.1.625-.109.835-.029.206.079.363.074.466-.017.12-.106.979-.397 1.291-.439.31-.041.376.013.401.327l.018.214.433-.018c.378-.016.452-.004.581.097.141.11.146.131.114.448-.02.197-.075.385-.134.461-.2.255-.089.621.332 1.094.232.261.339.577.533 1.567.069.355.023.51-.304 1.02-.306.476-.296.996.027 1.518.185.299.196.341.201.808.005.429.022.513.129.645.24.295.36.616.348.934l-.011.298.195.013c.14.009.267-.033.451-.15.141-.09.308-.163.371-.163s.28-.083.483-.184c.289-.144.47-.294.841-.693.497-.536.718-.85.677-.963-.04-.111.06-.249.28-.387.236-.148.367-.487.314-.812-.027-.162 0-.231.183-.474.118-.156.32-.363.45-.459.278-.207.452-.496.457-.757.002-.103.034-.338.07-.522.052-.258.052-.366.003-.473-.035-.076-.064-.332-.064-.568 0-.366.023-.474.157-.736.086-.169.208-.354.271-.41s.141-.2.173-.32c.032-.119.157-.327.276-.462s.276-.36.348-.5c.209-.409.445-1.165.485-1.558.041-.403.005-.442-.234-.255-.076.059-.194.107-.263.107s-.14.024-.158.054c-.055.089-.114.062-.181-.083-.083-.18-.08-.354.005-.343.143.018.197-.008.231-.114.024-.075.066-.1.132-.079.065.02.126-.014.186-.104a.798.798 0 0 1 .255-.22c.104-.053.155-.114.137-.162-.034-.089.157-.208.246-.153.103.063.02 2.435-.116 3.322-.172 1.122-.797 3.419-.81 2.974-.006-.216-.068-.179-.221.132a2.81 2.81 0 0 1-.369.534c-.199.219-.241.308-.281.584a1.845 1.845 0 0 1-.185.56c-.1.169-.145.334-.16.589-.021.337-.041.383-.429.959a15.747 15.747 0 0 1-6.185 5.389 14.96 14.96 0 0 1-4.333 1.396 15.78 15.78 0 0 1-6.024-.166c-2.096-.465-4.21-1.436-5.978-2.747-.484-.359-.597-.515-.436-.605.078-.044.065-.073-.1-.219-.106-.094-.131-.131-.056-.084.206.13.326.109.326-.056 0-.114.018-.132.095-.098.172.077.609.09.692.022.104-.086.102-.29-.005-.377a.664.664 0 0 1-.135-.164c-.048-.089-.036-.089.226.002.338.118.469.09.583-.127.048-.092.251-.332.451-.533l.363-.367-.052-.272c-.029-.15-.052-.278-.052-.286s.073-.04.162-.07c.089-.031.162-.08.162-.108s.096-.068.214-.088c.117-.02.242-.07.277-.112.041-.049.17-.076.359-.076.324 0 .504-.068.504-.19 0-.044.073-.179.162-.302s.163-.273.164-.335a.637.637 0 0 1 .079-.247c.089-.155.108-.784.029-.989-.045-.118-.031-.151.115-.253.23-.162.788-.922.856-1.165.081-.288.069-.614-.026-.75-.049-.069-.166-.131-.284-.15-.293-.047-.415-.106-.645-.312-.246-.219-.392-.27-.734-.258-.159.006-.308-.024-.39-.077a.372.372 0 0 0-.298-.05c-.139.03-.165.02-.165-.067 0-.132-.539-.411-.794-.411-.114 0-.181-.026-.181-.072 0-.039-.043-.085-.095-.102s-.148-.055-.213-.086c-.18-.085-.288-.017-.288.182 0 .133-.015.159-.064.111-.074-.073-.012-.242.205-.557l.135-.195-.138-.202c-.076-.111-.138-.233-.138-.271 0-.105-.263-.393-.443-.485-.088-.045-.356-.116-.596-.158-.422-.074-.447-.086-.727-.373-.159-.163-.336-.297-.393-.297-.063 0-.116-.048-.134-.122s-.1-.148-.203-.186c-.147-.055-.162-.077-.104-.147.06-.071.044-.082-.115-.082a.64.64 0 0 0-.312.089c-.101.07-.149.076-.228.027a.602.602 0 0 0-.265-.062c-.097 0-.178-.033-.196-.081-.017-.044-.066-.081-.108-.081s-.091-.036-.108-.081c-.017-.044-.077-.081-.134-.081-.115 0-.14.086-.035.121.037.012.001.035-.082.051-.114.022-.136.013-.094-.038.058-.069.019-.241-.054-.241-.023 0-.073.037-.111.083s-.187.133-.332.195c-.159.068-.263.146-.263.199a.623.623 0 0 1-.106.246l-.105.158-.056-.145a.225.225 0 0 0-.373-.08c-.051.05-.101.024-.229-.121l-.163-.186.033-.541c.038-.634.002-.702-.345-.643l-.21.035.04-.232a7.21 7.21 0 0 1 .127-.543c.114-.408.113-.414-.069-.414s-.233.055-.329.358c-.073.229-.274.367-.273.187.001-.152.157-1.142.251-1.594.099-.47.164-.603.255-.513s.127.067.161-.098c.034-.168.25-.256.362-.147.044.043.08.033.132-.036.064-.086.075-.087.105-.009.018.048.033.182.033.298 0 .299.118.646.213.628.123-.024.166-.296.111-.722-.074-.582-.038-.682.414-1.14.217-.22.384-.419.369-.442s-.001-.057.029-.076.055-.087.055-.152c0-.118.15-.439.367-.786.063-.101.103-.203.089-.227s.035-.058.111-.077c.076-.019.138-.057.138-.085s.11-.099.244-.158c.245-.108.301-.18.176-.225-.12-.043.03-.215.356-.409.169-.1.307-.215.307-.255s.032-.073.072-.073c.049 0 .064.051.048.161-.02.133-.005.161.084.161.059 0 .141-.04.182-.089.085-.102.782-.556.854-.556.086 0 .171-.146.137-.235-.05-.13-.179-.106-.249.047-.064.14-.131.173-.162.081-.01-.029-.122-.058-.248-.063-.24-.009-.295-.086-.149-.206.045-.037.081-.103.081-.148 0-.064-.047-.075-.217-.052-.119.016-.217.008-.217-.018 0-.091.309-.205.789-.292.332-.06.551-.134.7-.234a2.78 2.78 0 0 1 .37-.212c.153-.065.152-.064-.051.191-.113.141-.23.281-.262.311-.086.083-.203.302-.176.329.013.013.174 0 .358-.03s.37-.04.414-.023c.044.017.113.003.154-.031.057-.047.095-.041.163.026.049.048.125.074.169.057.12-.046.162-.201.074-.269-.042-.033-.079-.09-.082-.127-.018-.227-.024-.235-.131-.201a.668.668 0 0 1-.275-.001c-.161-.035-.162-.039-.068-.142.122-.134.146-.469.044-.604-.055-.073-.165-.11-.376-.128-.164-.014-.299-.046-.299-.072s-.048-.047-.107-.047c-.076 0-.097-.025-.073-.087.02-.053-.002-.107-.056-.137-.049-.027-.09-.081-.09-.119s-.059-.1-.132-.139c-.123-.065-.153-.052-.446.207-.342.303-.488.333-.463.098.015-.14.006-.146-.239-.146-.251 0-.253-.001-.156-.107a.401.401 0 0 1 .266-.11c.274-.004.711-.125.812-.226.052-.052.126-.094.165-.094.103 0 .199-.134.163-.227-.02-.051-.078-.07-.163-.054-.077.015-.133 0-.133-.035s.1-.06.242-.06c.185 0 .3-.041.487-.172.135-.094.245-.191.245-.215s-.091-.03-.203-.013c-.112.017-.284.039-.383.05-.173.019-.177.015-.104-.097.099-.153 1.194-.975 1.489-1.117.282-.136.537-.084.516.106-.009.077.017.115.079.115.071 0 .077.014.026.065a.232.232 0 0 0-.065.141c0 .076.126.071.406-.017.06-.019.021.014-.085.073s-.223.142-.258.184c-.078.093-.028.252.08.252.042 0 .091.036.108.081s.052.081.077.081.105.059.178.131a.885.885 0 0 0 .767.199c.114-.031.2-.032.219-.002.017.027.15.049.296.049.222 0 .293-.027.43-.159.09-.088.164-.196.164-.241s.096-.13.213-.189c.137-.07.219-.151.23-.23.019-.13.126-.168.938-.338l.501-.107c.084-.019.122-.068.122-.154 0-.099.05-.145.232-.214.128-.048.304-.089.393-.09.392-.005 1.759-.267 1.988-.381a.477.477 0 0 1 .176-.047c.116 0 .102-.093-.024-.16-.151-.08-.08-.207.139-.247.101-.019.184-.056.184-.082s.059-.048.132-.048.147-.024.166-.054c.018-.03.123-.054.233-.055.149-.001.179-.014.119-.053-.107-.068-.325-.068-.325 0 0 .03-.024.054-.054.054s-.054-.034-.054-.076c0-.042-.03-.088-.068-.103s.034-.029.159-.031c.262-.005.352-.091.169-.16-.122-.046-.121-.048.037-.082.089-.019.236-.058.325-.088s.357-.068.596-.086c.238-.018.47-.052.514-.075.158-.083-.189-.112-1.15-.095-.806.014-.943.006-.89-.057s-.13-.071-1.196-.051c-.692.013-1.258.019-1.258.013 0-.022 1.194-.19 1.679-.236.825-.078 2.675-.023 3.547.105zm-5.321.197c.037-.015.007-.027-.068-.027s-.105.012-.068.027a.208.208 0 0 0 .135 0zm2.734.373c-.018.018-.065.02-.104.004-.043-.017-.03-.03.033-.032.057-.002.089.01.071.028zm-.96 1.042c-.106-.068-.256-.068-.298 0-.02.032.049.053.173.053.153-.001.185-.014.125-.053zm.203.628a1 1 0 0 1 .284.001c.149.028.313.03 1.265.012.388-.007.656.01.677.042.019.03.09.071.157.092.177.055.149.175-.054.237a3.566 3.566 0 0 1-1.422.118c-.451-.052-.902-.148-.745-.159.037-.003.068-.03.068-.062 0-.033-.046-.043-.108-.023-.149.047-.271-.032-.132-.086.096-.037.095-.041-.017-.045-.172-.005-.152-.099.027-.128zm-6.165.252a1.29 1.29 0 0 1-.263.05c-.156.02-.213.013-.162-.019.072-.045.477-.075.426-.031zm10.24 1.284c0-.037.063-.067.141-.067.103 0 .133.022.11.081-.018.047-.001.081.042.081.04 0 .103-.036.14-.081.077-.092.516-.112.569-.026.019.03-.023.077-.092.104-.102.04-.072.051.159.053.322.004.377.098.162.275l-.122.101.147.002c.09.001.169.043.205.109.032.059.137.14.235.181s.217.135.267.21c.05.075.164.153.255.173.181.039.232.22.079.278-.069.026-.072.042-.014.079.153.098-.082.141-.625.116-.302-.014-.658-.001-.792.03-.301.069-.4-.004-.167-.124.169-.087.182-.207.02-.178-.149.026-.137-.114.012-.151.102-.025.127-.052.085-.093-.098-.097-.065-.144.101-.144.088 0 .174-.024.193-.054s-.015-.054-.074-.054-.121-.03-.139-.067c-.025-.054-.038-.054-.063 0-.017.037-.07.067-.117.067s-.07-.016-.05-.035-.006-.065-.057-.102c-.079-.057-.081-.079-.017-.157.068-.081.061-.086-.07-.054-.123.031-.145.019-.145-.077 0-.062-.026-.113-.057-.113s-.045-.019-.031-.042c.015-.023-.045-.09-.132-.148s-.159-.136-.159-.173zm-.305.658c.052-.133.587-.11.716.032.098.108.098.115.005.183-.063.046-.091.124-.081.223.015.144.001.155-.227.19-.134.02-.31.053-.392.073-.34.085-.584-.153-.308-.3.106-.056.107-.064.019-.128-.118-.086-.057-.192.11-.192.07 0 .14-.036.158-.081zm6.19.224c.062-.062.126-.039.126.045a.082.082 0 0 1-.081.081c-.085 0-.107-.064-.045-.125zm1.642.069c.132.083.04.099-.134.024-.123-.053-.136-.071-.054-.072a.41.41 0 0 1 .188.048zM3.761 6.529c0 .09-.18.351-.336.487-.128.112-.182.208-.191.341-.013.199-.183.415-.28.355-.086-.053-.073-.138.022-.138.045 0 .081-.024.081-.054s-.026-.054-.059-.054c-.057 0 .346-.605.564-.846.103-.114.199-.158.199-.091zm1.547.663c.034-.055.244-.064.371-.015.14.053.098.129-.072.129-.202 0-.337-.051-.299-.113zm19.074.598c.052 0 .133.067.18.148.076.132.166.196.43.306.045.019.13.063.19.1.353.215.408.272.439.466a.85.85 0 0 0 .204.386c.094.102.176.242.181.311.022.288.448.523.448.247 0-.095.023-.124.081-.102.145.055.167-.148.027-.26a.91.91 0 0 1-.199-.24c-.065-.124-.063-.131.011-.07.069.057.096.052.157-.031.063-.085.094-.091.215-.036.078.035.141.099.141.141s.03.088.068.102c.052.019.053.04.005.091s-.012.132.163.352c.124.157.248.287.276.289s.107.056.176.121c.111.103.14.108.258.046.119-.063.15-.056.302.071.179.149.319.179.412.086.165-.164.385.284.285.581-.027.08-.074.249-.105.375-.06.243-.098.265-.286.165-.065-.035-.254-.067-.419-.071-.214-.005-.408-.057-.669-.179-.203-.094-.412-.171-.466-.171s-.145-.065-.203-.143c-.084-.115-.146-.142-.309-.136-.264.01-.353.089-.353.314 0 .111-.031.195-.079.213-.093.036-.528-.163-.956-.437a1.46 1.46 0 0 0-.619-.237c-.416-.056-.591-.235-.537-.55.022-.129.012-.238-.026-.284-.042-.051-.044-.085-.005-.109.087-.054.069-.206-.02-.172-.043.016-.104-.003-.138-.043-.045-.054-.187-.067-.559-.051-.274.012-.548.018-.607.015-.704-.038-1.051-.002-1.537.16-.596.199-.71.205-1.035.055l-.244-.112.19-.07c.104-.039.308-.072.453-.074.216-.003.299-.035.46-.175.321-.279.407-.41.332-.501-.095-.113.207-.403.419-.403.216 0 .364-.117.326-.259-.039-.148.127-.204.342-.116.175.072.397.044.671-.085.16-.076.2-.076.374-.004a.722.722 0 0 1 .294.244c.113.184.389.386.652.477.377.13.965.763.709.763-.031 0-.042.024-.024.054.063.102.227.053.291-.087.046-.101.048-.16.006-.21-.084-.101.026-.152.167-.078.063.033.125.05.138.037.063-.063-.065-.2-.307-.331-.147-.079-.268-.167-.268-.195s-.056-.05-.125-.05c-.151 0-.251-.076-.415-.313a.704.704 0 0 0-.252-.227c-.075-.028-.129-.093-.129-.153 0-.143.108-.167.227-.049.054.054.141.098.193.098zm-1.209.237c.144-.105.208-.039.168.173-.024.13-.01.207.049.266.1.099.11.35.019.441-.15.148-.355.018-.279-.178a.173.173 0 0 0-.029-.154c-.046-.055-.041-.089.018-.138.063-.052.067-.092.016-.201-.053-.115-.047-.148.038-.209zm4.663.171c.073.048.121.106.106.129s.05.107.143.185c.131.109.206.134.323.109.13-.028.192.004.411.212.142.135.276.246.297.246.071 0 .325.371.291.425-.05.081-.475-.064-.711-.243-.187-.141-.246-.156-.692-.165-.444-.009-.5-.023-.626-.148-.119-.118-.13-.153-.072-.244a.442.442 0 0 0 .067-.193c0-.092.216-.391.286-.396a.515.515 0 0 1 .176.084zm.879.321c-.013.013-.106-.006-.208-.042l-.185-.066.163-.031c.107-.021.178-.006.208.042.025.04.035.084.022.097zm-6.99.111c.065-.064.179-.035.179.046a.08.08 0 0 1-.078.081c-.09 0-.151-.077-.101-.127zm-19.129.235c-.019.03-.054.042-.079.027s-.083.063-.129.174l-.084.201-.003-.228c-.003-.22.004-.228.163-.228.098 0 .152.022.132.055zm27.743.944c-.026.026-.367-.633-.363-.703.001-.03.088.112.193.315s.181.377.17.388zm-6.269-.521c0-.043.077-.052.251-.028.138.019.294.034.347.034.073 0 .095.044.095.188 0 .217-.058.232-.287.077-.089-.061-.217-.132-.284-.16s-.122-.077-.122-.112zm6.662 1.45c0 .016-.061-.054-.135-.154a.674.674 0 0 1-.133-.346c.002-.143.019-.124.135.154.073.175.133.331.133.346zm-3.927-.448c-.159-.072-.159-.074-.027-.077.184-.005.379.051.379.109 0 .069-.164.054-.352-.031zm1.584.17c.134-.035.23-.041.23-.015a.195.195 0 0 1-.195.193c-.151 0-.178-.141-.035-.178zm2.59 1.964c.056.126.181.335.279.465.176.234.234.503.121.571-.099.061-.214-.089-.214-.277 0-.1-.023-.182-.05-.182-.066 0-.31-.512-.359-.751-.033-.161-.027-.178.042-.121.044.036.125.169.181.295zm-1.859.152c.112.19.203.387.203.437s.043.115.096.143c.102.054.284.494.283.685 0 .063.049.176.11.253s.138.219.172.316.121.267.194.378c.073.11.121.246.106.302s-.005.241.022.411c.027.171.037.322.021.338s-.075-.079-.133-.209c-.058-.13-.166-.29-.239-.357s-.149-.212-.169-.322c-.02-.111-.105-.335-.189-.497s-.168-.412-.187-.555-.083-.321-.142-.397c-.06-.075-.109-.168-.109-.207s-.106-.297-.236-.574c-.22-.471-.228-.504-.122-.497.079.006.176.113.317.353zm-26.957.05c.018-.03.056-.054.084-.054s.051.024.051.054-.038.054-.084.054-.069-.024-.051-.054zm.027.457c0-.044.024-.081.054-.081s.054.036.054.081c0 .044-.024.081-.054.081s-.054-.036-.054-.081zm-.749.527a.412.412 0 0 1 .264-.124c.178 0 .496.127.585.232a.458.458 0 0 0 .221.108c.156.031.261.195.193.304-.019.03-.136.054-.261.054-.196 0-.236-.02-.293-.148-.061-.138-.198-.224-.484-.306-.098-.028-.113-.016-.088.076.016.062.003.11-.032.11s-.06-.027-.06-.06c0-.042-.025-.04-.081.007-.134.11-.103-.105.036-.252zm1.381.127c.062-.062.126-.039.126.045a.082.082 0 0 1-.081.081c-.085 0-.107-.064-.045-.125zm.1.452c-.033-.147-.031-.148.24-.143.232.005.299.032.448.179.138.137.155.174.079.174-.053 0-.197.048-.321.108-.153.073-.236.089-.261.049-.02-.032-.119-.05-.22-.04-.135.014-.183-.003-.183-.062 0-.044.056-.088.125-.098.106-.015.12-.04.092-.166zm1.028.158c.021-.034.075-.048.119-.032s.103.031.13.031c.096 0 .049.101-.064.136-.129.041-.243-.042-.185-.135zm-1.814.214c0-.071.036-.108.105-.108.135 0 .202.106.105.166-.125.078-.21.054-.21-.059zm-1.732.916c.039.145.103.237.192.277.073.033.133.08.133.105s.036.045.08.045c.099 0 .299.376.299.562 0 .078.031.137.073.137.04 0 .101.061.135.136s.105.152.158.171a.431.431 0 0 1 .166.133c.102.141.227.123.227-.034 0-.072.024-.146.054-.164s.054.022.054.091c0 .068.035.19.077.271.112.212.122.74.018.903-.046.073-.101.187-.121.253s-.059.121-.087.121c-.084 0-.062.841.024.926.063.063.063.089 0 .175-.109.148-.091.363.047.571.204.307.348.597.448.907.052.163.141.385.196.495s.101.244.101.299c0 .134.483.624.825.836.301.187.393.478.533 1.702.059.517.144 1.059.187 1.206.084.282.097.585.033.748-.034.085-.075.058-.285-.188C2.12 23.999.915 21.341.428 18.34c-.085-.521-.18-3.081-.114-3.081.018 0 .059.098.091.217zm31.111.431c.044-.071.138-.075.138-.007 0 .063-.106.131-.144.093-.016-.016-.013-.054.007-.086zm-26.509.48c0-.072.036-.108.108-.108.123 0 .139.056.043.151s-.152.079-.152-.043zm-1.841.269c0 .059-.009.108-.021.108s-.034-.048-.049-.108c-.016-.059-.006-.107.021-.107s.049.048.049.107zm4.712 3.062c0-.022-.061-.052-.135-.066s-.135-.008-.135.014.061.052.135.066.135.008.135-.014z"
            />
        </symbol>
        <symbol id="icon-instagram" viewBox="0 0 32 32">
            <path
                stroke-linecap="round"
                stroke-linejoin="round"
                stroke-width="2.667"
                d="M22.667 2.667H9.334a6.667 6.667 0 0 0-6.667 6.667v13.333a6.667 6.667 0 0 0 6.667 6.667h13.333a6.667 6.667 0 0 0 6.667-6.667V9.334a6.667 6.667 0 0 0-6.667-6.667z"
            />
            <path stroke-linecap="round" stroke-linejoin="round" stroke-width="2.667" d="M21.333 15.16a5.338 5.338 0 0 1-6.123 6.049 5.334 5.334 0 1 1 6.124-6.048zM23.333 8.667h.013" />
        </symbol>
        <symbol id="icon-heart" viewBox="0 0 31 32">
            <path
                d="m15.488 24.384-.128.128-.141-.128C9.139 18.867 5.12 15.219 5.12 11.52c0-2.56 1.92-4.48 4.48-4.48 1.971 0 3.891 1.28 4.57 3.021h2.381c.678-1.741 2.598-3.021 4.57-3.021 2.56 0 4.48 1.92 4.48 4.48 0 3.699-4.019 7.347-10.112 12.864zM21.12 4.48c-2.227 0-4.365 1.037-5.76 2.662C13.965 5.516 11.827 4.48 9.6 4.48c-3.942 0-7.04 3.085-7.04 7.04 0 4.826 4.352 8.781 10.944 14.758l1.856 1.69 1.856-1.69C23.808 20.3 28.16 16.345 28.16 11.52c0-3.955-3.098-7.04-7.04-7.04z"
            />
        </symbol>
        <symbol id="icon-twitter" viewBox="0 0 32 32">
            <path
                stroke-linecap="round"
                stroke-linejoin="round"
                stroke-width="2.667"
                d="M30.667 4a14.542 14.542 0 0 1-4.187 2.04 5.975 5.975 0 0 0-6.637-1.661A5.981 5.981 0 0 0 16 10.04v1.333a14.211 14.211 0 0 1-12-6.04s-5.333 12 6.667 17.333a15.519 15.519 0 0 1-9.333 2.667c12 6.667 26.667 0 26.667-15.333a5.966 5.966 0 0 0-.107-1.107A10.288 10.288 0 0 0 30.667 4z"
            />
        </symbol>
        <symbol id="icon-user" viewBox="0 0 31 32">
<path fill="none" stroke="#266294" style="stroke: var(--color1, #266294)" stroke-linejoin="round" stroke-linecap="round" stroke-miterlimit="4" stroke-width="2.56" d="M25.6 27.52v-2.56c0-1.358-0.539-2.66-1.5-3.62s-2.262-1.5-3.62-1.5h-10.24c-1.358 0-2.66 0.539-3.62 1.5s-1.5 2.262-1.5 3.62v2.56"></path>
<path fill="none" stroke="#266294" style="stroke: var(--color1, #266294)" stroke-linejoin="round" stroke-linecap="round" stroke-miterlimit="4" stroke-width="2.56" d="M15.36 14.72c2.828 0 5.12-2.292 5.12-5.12s-2.292-5.12-5.12-5.12c-2.828 0-5.12 2.292-5.12 5.12s2.292 5.12 5.12 5.12z"></path>
</symbol>
        <symbol id="icon-youtube" viewBox="0 0 32 32">
            <path
                fill="none"
                stroke="#266294"
                stroke-linecap="round"
                stroke-linejoin="round"
                stroke-width="2.667"
                d="M30.053 8.56a3.703 3.703 0 0 0-2.586-2.667C25.174 5.333 16 5.333 16 5.333s-9.173 0-11.467.613c-.628.178-1.197.518-1.652.986s-.777 1.048-.935 1.681a38.606 38.606 0 0 0-.613 7.053c-.015 2.383.19 4.762.613 7.107.175.613.504 1.171.958 1.619s1.014.772 1.629.941c2.293.613 11.467.613 11.467.613s9.173 0 11.467-.613a3.708 3.708 0 0 0 2.586-2.667 38.66 38.66 0 0 0 .613-7 38.663 38.663 0 0 0-.613-7.107z"
                style="stroke: var(--color1, #266294);"
            />
            <path fill="none" stroke="#266294" stroke-linecap="round" stroke-linejoin="round" stroke-width="2.667" d="m13 20.027 7.667-4.36L13 11.307v8.72z" style="stroke: var(--color1, #266294);" />
        </symbol>
        <svg xmlns="http://www.w3.org/2000/svg" aria-hidden="true" style="position: absolute; width: 0; height: 0; overflow: hidden;">
    <defs>
        <symbol id="icon-eye-off" viewBox="0 0 32 32">
            <path
                stroke-linecap="round"
                stroke-linejoin="round"
                stroke-width="2.667"
                d="M23.92 23.92A13.43 13.43 0 0 1 16 26.667C6.667 26.667 1.333 16 1.333 16A24.605 24.605 0 0 1 8.08 8.08m5.12-2.427a12.161 12.161 0 0 1 2.8-.32C25.333 5.333 30.667 16 30.667 16a24.646 24.646 0 0 1-2.88 4.253m-8.96-1.426a4.01 4.01 0 0 1-2.855 1.273 4 4 0 0 1-2.796-6.926M1.333 1.333l29.333 29.333"
            />
        </symbol>
        <symbol id="icon-check" viewBox="0 0 32 32"><path stroke-width="1.6" d="M4.8 1.6h22.4a3.2 3.2 0 0 1 3.2 3.2v22.4a3.2 3.2 0 0 1-3.2 3.2H4.8a3.2 3.2 0 0 1-3.2-3.2V4.8a3.2 3.2 0 0 1 3.2-3.2z" /></symbol>
        <symbol id="icon-check-square" viewBox="0 0 34 32">
            <path stroke-linecap="round" stroke-linejoin="round" stroke-width="1.6" d="m11.2 14.4 4.8 4.8 16-16" />
            <path stroke-linecap="round" stroke-linejoin="round" stroke-width="1.6" d="M30.4 16v11.2a3.2 3.2 0 0 1-3.2 3.2H4.8a3.2 3.2 0 0 1-3.2-3.2V4.8a3.2 3.2 0 0 1 3.2-3.2h17.6" />
        </symbol>
        <symbol id="icon-chevron-down" viewBox="0 0 32 32"><path stroke-linecap="round" stroke-linejoin="round" stroke-width="4" d="m8 12 8 8 8-8" /></symbol>
        <symbol id="icon-chevron-down-1" viewBox="0 0 32 32"><path stroke-linecap="round" stroke-linejoin="round" stroke-width="4" d="m24 20-8-8-8 8" /></symbol>
        <symbol id="icon-eye" viewBox="0 0 32 32">
            <path stroke-linecap="round" stroke-linejoin="round" stroke-width="2.667" d="M1.333 16S6.666 5.333 16 5.333 30.667 16 30.667 16 25.334 26.667 16 26.667 1.333 16 1.333 16z" />
            <path stroke-linecap="round" stroke-linejoin="round" stroke-width="2.667" d="M16 20a4 4 0 1 0 0-8 4 4 0 0 0 0 8z" />
        </symbol>
        <symbol id="icon-stateDefault" viewBox="0 0 96 32">
            <path
                d="M64.174 8.741H52.27v-2.08h14.592v2.08l-7.936 18.688h-3.072l8.32-18.688zm7.394 15.232h3.392l-3.008 7.04h-1.856l1.472-7.04zm7.772-.256c0-.597.096-1.152.288-1.664.213-.533.48-.981.8-1.344.256-.299.64-.619 1.152-.96a13.298 13.298 0 0 1 1.504-.896c.406-.213.939-.459 1.6-.736l3.456-1.536c1.365-.597 2.048-1.525 2.048-2.784v-2.848c0-.981-.299-1.632-.896-1.952-.597-.341-1.642-.512-3.136-.512-1.472 0-3.498.224-6.08.672v-2.24c2.155-.405 4.384-.608 6.688-.608s3.968.352 4.992 1.056c1.024.683 1.536 1.835 1.536 3.456v3.392c0 .768-.128 1.408-.384 1.92-.256.491-.672.939-1.248 1.344-.555.384-1.376.821-2.464 1.312l-4.8 2.208c-1.408.64-2.112 1.579-2.112 2.816v1.376h11.008v2.24H79.34v-3.712z"
            />
            <path
                stroke-width="2.286"
                d="m16 2.357 3.929 7.086c.229.414.63.704 1.094.795l7.953 1.547-5.525 5.926a1.6 1.6 0 0 0-.418 1.286l.986 8.042-7.343-3.423c-.429-.2-.924-.2-1.352 0l-7.343 3.423.987-8.042a1.597 1.597 0 0 0-.418-1.286l-5.525-5.926 7.953-1.547c.464-.09.865-.381 1.094-.795l3.929-7.086z"
            />
        </symbol>
        <symbol id="icon-stateDefault-1" viewBox="0 0 32 32">
            <path stroke-width=".8" d="M16 .4C24.616.4 31.6 7.384 31.6 16S24.616 31.6 16 31.6.4 24.616.4 16 7.384.4 16 .4z" />
            <path
                d="M16 25.6a9.6 9.6 0 1 1 6.791-16.39.798.798 0 0 1 0 1.13.8.8 0 0 1-.564.238.782.782 0 0 1-.565-.238 7.998 7.998 0 0 0-9.933-1.108 7.995 7.995 0 0 0-3.263 9.447 8.004 8.004 0 0 0 8.499 5.259 8.004 8.004 0 0 0 6.997-7.136h-7.96a.8.8 0 1 1 0-1.6h8.8a.8.8 0 0 1 .8.8 9.626 9.626 0 0 1-9.6 9.6z"
            />
        </symbol>
        <symbol id="icon-stateDefault-2" viewBox="0 0 32 32">
            <path stroke-width=".8" d="M16 .4C24.616.4 31.6 7.384 31.6 16S24.616 31.6 16 31.6.4 24.616.4 16 7.384.4 16 .4z" />
            <path
                d="M10.414 22.4H8.531v-9.828H5.187v-1.594h8.563v1.594h-3.336V22.4zm11.969-.008-1.094-4.023c-.052-.198-.115-.437-.187-.719s-.146-.57-.219-.867l-.203-.836-.133-.594h-.062c-.026.141-.068.339-.125.594s-.122.534-.195.836c-.073.302-.146.596-.219.883-.068.286-.13.531-.187.734l-1.148 3.992h-2.016l-2.422-8.648h1.859l1.125 4.297c.073.292.143.607.211.945a23.641 23.641 0 0 1 .305 1.727h.063c.021-.141.049-.318.086-.531.036-.219.078-.445.125-.68.047-.24.094-.464.141-.672.047-.214.091-.385.133-.516l1.328-4.57h2.008l1.273 4.57c.057.198.12.448.187.75.068.297.128.596.18.898.057.297.094.544.109.742h.062c.021-.177.057-.417.109-.719.057-.307.122-.633.195-.977.073-.349.148-.672.227-.969l1.148-4.297h1.828l-2.438 8.648h-2.055z"
            />
        </symbol>
        <symbol id="icon-stateDefault-3" viewBox="0 0 32 32">
            <path stroke-width=".8" d="M16 .4C24.616.4 31.6 7.384 31.6 16S24.616 31.6 16 31.6.4 24.616.4 16 7.384.4 16 .4z" />
            <path d="M19.37 9.587h1.805V6.534a24.851 24.851 0 0 0-2.63-.134c-2.611 0-4.397 1.594-4.397 4.512v2.515h-2.947v3.418h2.947V25.6h3.533v-8.755h2.938l.442-3.418h-3.379v-2.179c0-1.008.269-1.661 1.69-1.661z" />
        </symbol>

<symbol id="icon-star" viewBox="0 0 34 32">
<path fill="none" stroke="#266294" style="stroke: var(--color1, #266294)" stroke-linejoin="miter" stroke-linecap="butt" stroke-miterlimit="4" stroke-width="2.4615" d="M17.231 2.538l4.231 7.631c0.247 0.445 0.678 0.759 1.178 0.856l8.565 1.666-5.95 6.382c-0.347 0.372-0.512 0.879-0.45 1.385l1.062 8.66-7.908-3.687c-0.462-0.215-0.995-0.215-1.456 0l-7.908 3.687 1.062-8.66c0.062-0.505-0.103-1.012-0.45-1.385l-5.95-6.382 8.565-1.666c0.5-0.097 0.931-0.411 1.178-0.856l4.231-7.631z"></path>
</symbol>

      </defs>
</svg>
